Coordinates
version=1
nRows=21
nColumns=38
inDegrees=no

Units are S.I. units (second, meters, Newtons, ...)
If the header above contains a line with 'inDegrees', this indicates whether rotational values are in degrees (yes) or radians (no).

endheader
time	pelvis_tilt	pelvis_list	pelvis_rotation	pelvis_tx	pelvis_ty	pelvis_tz	hip_flexion_r	hip_adduction_r	hip_rotation_r	knee_angle_r	ankle_angle_r	subtalar_angle_r	mtp_angle_r	hip_flexion_l	hip_adduction_l	hip_rotation_l	knee_angle_l	ankle_angle_l	subtalar_angle_l	mtp_angle_l	lumbar_extension	lumbar_bending	lumbar_rotation	arm_flex_r	arm_add_r	arm_rot_r	elbow_flex_r	pro_sup_r	wrist_flex_r	wrist_dev_r	arm_flex_l	arm_add_l	arm_rot_l	elbow_flex_l	pro_sup_l	wrist_flex_l	wrist_dev_l
1.69167	0.139403	0.0974044	0.0601487	0.866492	1.01421	-0.333157	0.38196	-0.127598	-0.108007	-1.71676	0.0231177	0.0529922	6.43763e-05	0.0200979	0.185551	-0.0183572	-0.79588	0.527376	0.0618433	4.41804e-05	-0.512495	-0.0819993	-0.241809	-0.39877	-0.311939	0.0609698	1.71514	2.06467	0.00752624	-0.0191875	-0.0938107	-0.386453	-0.016983	2.13075	1.75791	0.00775153	-0.00801938
1.7	0.131309	0.0841364	0.0643387	0.866763	1.01657	-0.333859	0.420556	-0.116185	-0.115823	-1.68485	0.0337338	0.0529922	6.43763e-05	-0.0141899	0.169311	-0.00871862	-0.764152	0.518635	0.0618433	4.41804e-05	-0.500741	-0.0628337	-0.257669	-0.430996	-0.325248	0.0681908	1.73206	2.06912	0.00752624	-0.0191875	-0.0955415	-0.379794	-0.0327956	2.15648	1.77233	0.00775153	-0.00801938
1.70833	0.122681	0.0701906	0.0685751	0.867452	1.01937	-0.334425	0.455869	-0.104533	-0.126403	-1.64594	0.0432452	0.0529922	6.43763e-05	-0.0492092	0.151587	-0.000309237	-0.728314	0.502681	0.0618433	4.41804e-05	-0.487457	-0.043525	-0.272463	-0.464507	-0.337544	0.0728861	1.74985	2.07777	0.00752624	-0.0191875	-0.098836	-0.373353	-0.0462844	2.182	1.7861	0.00775153	-0.00801938
1.71667	0.113674	0.0556972	0.072625	0.86852	1.02255	-0.334845	0.487659	-0.0924665	-0.139018	-1.60023	0.0510028	0.0529922	6.43763e-05	-0.0847383	0.132582	0.0060379	-0.688796	0.478848	0.0618433	4.41804e-05	-0.473028	-0.0242909	-0.285791	-0.499022	-0.348117	0.0741824	1.76726	2.08942	0.00752624	-0.0191875	-0.102925	-0.367256	-0.056412	2.20636	1.79838	0.00775153	-0.00801938
1.725	0.104447	0.0407354	0.0762452	0.869921	1.02606	-0.335114	0.515713	-0.0796693	-0.152808	-1.54784	0.056467	0.0529922	6.43763e-05	-0.120527	0.112502	0.00949348	-0.646159	0.446618	0.0618433	4.41804e-05	-0.45785	-0.0052459	-0.297294	-0.534267	-0.356459	0.0715833	1.7835	2.10242	0.00752624	-0.0191875	-0.107232	-0.361559	-0.0625409	2.2289	1.80865	0.00775153	-0.00801938
1.73333	0.0951458	0.0253836	0.0791933	0.871612	1.02983	-0.335229	0.539838	-0.0657801	-0.16683	-1.48879	0.0593119	0.0529922	6.43763e-05	-0.156302	0.0916	0.00930976	-0.601084	0.405676	0.0618433	4.41804e-05	-0.442292	0.0135408	-0.306694	-0.569949	-0.362274	0.0649726	1.79817	2.11502	0.00752624	-0.0191875	-0.111407	-0.356263	-0.0644701	2.24924	1.81677	0.00775153	-0.00801938
1.74167	0.0858979	0.00978136	0.0812412	0.873551	1.03377	-0.335197	0.559861	-0.0505116	-0.180099	-1.42306	0.0594933	0.0529922	6.43763e-05	-0.191771	0.0702337	0.00490063	-0.554349	0.355964	0.0618433	4.41804e-05	-0.426663	0.0319705	-0.313836	-0.605721	-0.365468	0.0545653	1.81118	2.12567	0.00752624	-0.0191875	-0.11532	-0.35133	-0.0623938	2.26719	1.82289	0.00775153	-0.00801938
1.75	0.0768086	-0.00581283	0.082195	0.875704	1.0378	-0.335024	0.575636	-0.0337716	-0.19165	-1.35065	0.0572787	0.0529922	6.43763e-05	-0.226631	0.0489133	-0.00408399	-0.50682	0.29774	0.0618433	4.41804e-05	-0.411203	0.0498446	-0.318707	-0.641166	-0.366119	0.0408281	1.82267	2.13326	0.00752624	-0.0191875	-0.11902	-0.346706	-0.0568087	2.28274	1.82735	0.00775153	-0.00801938
1.75833	0.0679679	-0.020987	0.0819146	0.878035	1.04181	-0.334723	0.587051	-0.0157522	-0.200611	-1.27168	0.0532367	0.0529922	6.43763e-05	-0.260568	0.0283149	-0.0177016	-0.459462	0.231658	0.0618433	4.41804e-05	-0.396089	0.0668209	-0.321449	-0.675801	-0.364455	0.0243944	1.83288	2.13724	0.00752624	-0.0191875	-0.122674	-0.342338	-0.0484004	2.29597	1.83057	0.00775153	-0.00801938
1.76667	0.0594535	-0.0351832	0.0803299	0.880513	1.04572	-0.334313	0.594062	0.00303912	-0.206285	-1.1865	0.0481884	0.0529922	6.43763e-05	-0.293249	0.0092497	-0.0356922	-0.413352	0.158871	0.0618433	4.41804e-05	-0.381446	0.0824083	-0.322352	-0.709084	-0.360831	0.00599158	1.84212	2.13758	0.00752624	-0.0191875	-0.12651	-0.33819	-0.0379385	2.30707	1.83296	0.00775153	-0.00801938
1.775	0.0513257	-0.0477551	0.0774428	0.883101	1.04943	-0.333814	0.596718	0.0218244	-0.208242	-1.09579	0.0431178	0.0529922	6.43763e-05	-0.324325	-0.0074171	-0.0574947	-0.369689	0.0810993	0.0618433	4.41804e-05	-0.36737	0.0960085	-0.321816	-0.740442	-0.355704	-0.01362	1.85067	2.13481	0.00752624	-0.0191875	-0.130766	-0.334244	-0.0261942	2.31621	1.83492	0.00775153	-0.00801938
1.78333	0.0436429	-0.0580366	0.0733093	0.885764	1.05284	-0.333249	0.595205	0.0396796	-0.206398	-1.00066	0.0390423	0.0529922	6.43763e-05	-0.35343	-0.0208957	-0.0823055	-0.329768	0.00065518	0.0618433	4.41804e-05	-0.353942	0.107012	-0.32028	-0.769294	-0.349603	-0.033696	1.85877	2.12982	0.00752624	-0.0191875	-0.135654	-0.330505	-0.0138809	2.32359	1.83677	0.00775153	-0.00801938
1.79167	0.036475	-0.0654756	0.0680116	0.888464	1.05584	-0.332642	0.589881	0.0556985	-0.201055	-0.902696	0.0368524	0.0529922	6.43763e-05	-0.380196	-0.0306049	-0.109166	-0.294938	-0.0796245	0.0618433	4.41804e-05	-0.341232	0.114903	-0.318149	-0.795089	-0.343086	-0.0535508	1.8666	2.12373	0.00752624	-0.0191875	-0.14133	-0.326992	-0.00161445	2.32939	1.83872	0.00775153	-0.00801938
1.8	0.0298909	-0.0697578	0.0616337	0.891164	1.05836	-0.332007	0.581292	0.0691677	-0.192897	-0.803941	0.0371414	0.0529922	6.43763e-05	-0.404266	-0.0362865	-0.13706	-0.266542	-0.156552	0.0618433	4.41804e-05	-0.32932	0.11937	-0.315707	-0.817335	-0.336704	-0.0725928	1.87425	2.1177	0.00752624	-0.0191875	-0.147877	-0.323721	0.0101144	2.33376	1.84089	0.00775153	-0.00801938
1.80833	0.0239538	-0.0708889	0.0542493	0.893834	1.06033	-0.331347	0.570153	0.0797034	-0.182919	-0.706831	0.0400572	0.0529922	6.43763e-05	-0.425303	-0.0380727	-0.164984	-0.245861	-0.226851	0.0618433	4.41804e-05	-0.318297	0.120397	-0.313072	-0.835624	-0.330956	-0.0903516	1.88173	2.1127	0.00752624	-0.0191875	-0.155296	-0.320692	0.0209545	2.33681	1.84327	0.00775153	-0.00801938
1.81667	0.0187211	-0.0692168	0.0459298	0.896443	1.06168	-0.330662	0.5573	0.0873137	-0.172304	-0.614051	0.045223	0.0529922	6.43763e-05	-0.442985	-0.0364876	-0.191982	-0.234098	-0.28745	0.0618433	4.41804e-05	-0.308276	0.118297	-0.310198	-0.849654	-0.326267	-0.10649	1.88898	2.10939	0.00752624	-0.0191875	-0.163514	-0.317873	0.0306934	2.33861	1.84572	0.00775153	-0.00801938
1.825	0.0142735	-0.0653793	0.0367634	0.898961	1.0624	-0.329948	0.543607	0.0923783	-0.162253	-0.528331	0.0517554	0.0529922	6.43763e-05	-0.456987	-0.0323816	-0.217144	-0.232363	-0.335798	0.0618433	4.41804e-05	-0.299394	0.113697	-0.306913	-0.85923	-0.322977	-0.120802	1.89589	2.10809	0.00752624	-0.0191875	-0.172387	-0.315193	0.0392435	2.3392	1.84801	0.00775153	-0.00801938
1.83333	0.0106989	-0.0602015	0.0268692	0.901353	1.06249	-0.329207	0.529843	0.095573	-0.153773	-0.452211	0.0583864	0.0529922	6.43763e-05	-0.46702	-0.0268147	-0.239636	-0.241625	-0.370164	0.0618433	4.41804e-05	-0.29185	0.107458	-0.302975	-0.864261	-0.321337	-0.133194	1.90233	2.1087	0.00752624	-0.0191875	-0.18172	-0.312545	0.04662	2.3386	1.84989	0.00775153	-0.00801938
1.84167	0.00811987	-0.054607	0.0164059	0.90358	1.06197	-0.32844	0.516574	0.0977436	-0.147493	-0.387816	0.0636643	0.0529922	6.43763e-05	-0.472874	-0.0209018	-0.258748	-0.262632	-0.38989	0.0618433	4.41804e-05	-0.28593	0.100545	-0.298125	-0.864748	-0.321512	-0.143658	1.90817	2.11075	0.00752624	-0.0191875	-0.19128	-0.309804	0.0529163	2.3368	1.85114	0.00775153	-0.00801938
1.85	0.00671253	-0.0494858	0.0055579	0.905597	1.06086	-0.327655	0.504101	0.0997782	-0.143571	-0.33669	0.066192	0.0529922	6.43763e-05	-0.47447	-0.0156815	-0.273978	-0.295789	-0.395524	0.0618433	4.41804e-05	-0.281994	0.0939006	-0.292126	-0.860768	-0.323589	-0.152241	1.91329	2.11356	0.00752624	-0.0191875	-0.20082	-0.306856	0.0582804	2.33382	1.85159	0.00775153	-0.00801938
1.85833	0.0066963	-0.0456018	-0.00548489	0.907364	1.05923	-0.326855	0.49248	0.102491	-0.141701	-0.299749	0.0648653	0.0529922	6.43763e-05	-0.471905	-0.0120161	-0.285113	-0.341049	-0.388801	0.0618433	4.41804e-05	-0.280455	0.0883333	-0.284789	-0.852454	-0.327583	-0.159015	1.91761	2.11626	0.00752624	-0.0191875	-0.210098	-0.303628	0.0628913	2.32966	1.85112	0.00775153	-0.00801938
